<?xml version="1.0" encoding="UTF-8"?>
<svg xmlns="http://www.w3.org/2000/svg" xmlns:xlink="http://www.w3.org/1999/xlink" width="64pt" height="48pt" viewBox="0 0 64 48" version="1.1">
<g>
<path fill="#1E64C8" d="M11.266,16.504h1.246v-8.098h-1.246ZM8.773,16.504h1.246v-8.098h-1.246ZM6.277,16.504h1.246v-8.098h-1.246ZM3.785,16.504h1.246v-8.098h-1.246ZM13.762,16.504h1.246v-8.098h-1.246ZM16.254,16.504h1.246v-8.098h-1.246ZM18.75,16.504h1.246v-8.098h-1.246ZM2.508,19h18.766v-1.25h-18.766ZM19.996,7.16h-16.211l-1.25,-1.246h18.707ZM1.262,21.492h21.258v-1.246h-21.258ZM22.52,3.898l-10.629,-3.766l-10.629,3.766v1.32l10.629,-3.762l10.629,3.762ZM38.906,27.387c0.555,-0.004,1.07,0.18,1.312,0.367v-1.125c-0.242,-0.148,-0.824,-0.309,-1.422,-0.309c-1.652,0,-2.566,0.941,-2.566,2.305c0,1.141,0.484,1.684,1.262,2.355l0.711,0.613c0.582,0.492,0.949,0.867,0.949,1.602c0,0.855,-0.566,1.199,-1.418,1.199c-0.645,0,-1.18,-0.18,-1.488,-0.395v1.145c0.27,0.156,0.836,0.316,1.598,0.316c1.652,-0.004,2.562,-0.941,2.566,-2.309c0,-1.137,-0.484,-1.684,-1.258,-2.355l-0.711,-0.613c-0.59,-0.504,-0.953,-0.863,-0.949,-1.598c0,-0.863,0.562,-1.199,1.414,-1.199M1.262,32.641v-6.16h1.246v6.215c0,1.301,0.449,1.68,1.355,1.68c0.91,0,1.355,-0.379,1.355,-1.68v-6.215h1.25v6.16c0,2.008,-0.84,2.82,-2.605,2.82c-1.789,0,-2.602,-0.789,-2.602,-2.82M8.082,26.48h1.438l2.781,7.027c-0.094,-0.719,-0.176,-1.559,-0.176,-2.348v-4.68h1.195v8.816h-1.438l-2.809,-7.055c0.105,0.723,0.203,1.578,0.203,2.375v4.68h-1.195ZM15.086,35.297h1.246v-8.816h-1.246ZM17.492,26.48h1.305l1.109,4.586c0.164,0.691,0.367,1.855,0.492,2.781c0.121,-0.926,0.324,-2.09,0.512,-2.781l1.102,-4.586h1.262l-2.238,8.816h-1.305ZM24.43,26.48h4.125v1.059h-2.875v2.699h2.32v1.043h-2.32v2.957h2.875v1.059h-4.125ZM31.246,27.539v3.109h0.664c0.977,0,1.629,-0.207,1.629,-1.562c0,-1.344,-0.652,-1.547,-1.629,-1.547ZM29.996,26.48h2.035c1.629,0,2.797,0.613,2.797,2.605c0,1.395,-0.68,2.074,-1.535,2.387l1.871,3.824h-1.422l-1.656,-3.594h-0.84v3.594h-1.25v-8.816M41.891,35.297h1.246v-8.816h-1.246ZM44.324,26.48h5.059v1.059h-1.914v7.758h-1.246v-7.758h-1.898ZM50.527,26.48h4.121v1.059h-2.875v2.699h2.32v1.043h-2.32v2.957h2.875v1.059h-4.121ZM56.078,35.297h1.246v-8.816h-1.246ZM58.469,26.48h5.059v1.059h-1.914v7.758h-1.246v-7.758h-1.898ZM0.988,43.332c0,-3.473,0.922,-4.57,3.215,-4.57c0.652,0,1.344,0.176,1.641,0.352v1.152c-0.324,-0.188,-0.949,-0.395,-1.547,-0.395c-1.465,0,-2.02,0.543,-2.02,3.461c0,2.887,0.395,3.484,1.668,3.484c0.395,0,0.719,-0.051,0.965,-0.121v-2.941h-1.305v-1.059h2.551v4.762c-0.258,0.16,-1.289,0.445,-2.195,0.445c-2.391,0,-2.973,-1.246,-2.973,-4.57M7.645,38.922h4.125v1.059h-2.875v2.699h2.32v1.043h-2.32v2.961h2.875v1.055h-4.125ZM13.211,38.922h1.438l2.781,7.027c-0.094,-0.719,-0.176,-1.559,-0.176,-2.348v-4.68h1.195v8.816h-1.438l-2.809,-7.051c0.105,0.719,0.203,1.574,0.203,2.371v4.68h-1.195ZM19.59,38.922h5.059v1.059h-1.91v7.758h-1.25v-7.758h-1.898ZM53.93,15.355v2.797h0.59c0.961,0,1.59,-0.215,1.59,-1.398c0,-1.184,-0.629,-1.398,-1.59,-1.398ZM53.426,14.91h1.156c1.254,0,2.055,0.414,2.055,1.844c0,1.227,-0.66,1.609,-1.297,1.762l1.449,2.977h-0.578l-1.367,-2.895h-0.914v2.895h-0.504ZM49.496,19.387h1.914l-0.395,-1.438c-0.242,-0.883,-0.477,-1.805,-0.566,-2.422c-0.102,0.617,-0.316,1.539,-0.559,2.422ZM50.207,14.91h0.504l1.812,6.582h-0.535l-0.453,-1.66h-2.16l-0.453,1.66h-0.527ZM45.016,19.387h1.91l-0.395,-1.438c-0.242,-0.883,-0.477,-1.805,-0.562,-2.422c-0.105,0.617,-0.316,1.539,-0.559,2.422ZM45.723,14.91h0.508l1.812,6.582h-0.535l-0.457,-1.66h-2.156l-0.457,1.66h-0.527ZM40.641,21.434v-0.496c0.141,0.078,0.535,0.223,0.891,0.223c0.547,0,1.023,-0.121,1.023,-1.348v-4.902h0.504v4.961c0,1.289,-0.504,1.742,-1.547,1.742c-0.383,0,-0.73,-0.102,-0.871,-0.18ZM37.988,18.203c0,-2.34,-0.336,-2.969,-1.328,-2.969c-0.992,0,-1.324,0.629,-1.324,2.969c0,2.336,0.332,2.965,1.324,2.965c0.992,0,1.328,-0.629,1.328,-2.965ZM34.809,18.203c0,-2.613,0.484,-3.414,1.852,-3.414c1.379,0,1.855,0.781,1.855,3.414c0,2.613,-0.488,3.41,-1.855,3.41c-1.379,0,-1.852,-0.777,-1.852,-3.41ZM33.117,18.203c0,-2.34,-0.336,-2.969,-1.328,-2.969c-0.992,0,-1.324,0.629,-1.324,2.969c0,2.336,0.332,2.965,1.324,2.965c0.992,0,1.328,-0.629,1.328,-2.965ZM29.938,18.203c0,-2.613,0.484,-3.414,1.852,-3.414c1.379,0,1.855,0.781,1.855,3.414c0,2.613,-0.488,3.41,-1.855,3.41c-1.375,0,-1.852,-0.777,-1.852,-3.41ZM25.766,21.039c0,-1.418,0.477,-1.988,1.164,-2.41c0.82,-0.52,1.379,-0.82,1.379,-1.969c0,-0.879,-0.375,-1.406,-1.297,-1.406c-0.426,0,-0.797,0.141,-1.031,0.266v-0.508c0.25,-0.133,0.695,-0.223,1.07,-0.223c1.34,0,1.785,0.828,1.785,1.871c0,1.34,-0.648,1.754,-1.531,2.301c-0.758,0.477,-1.023,0.883,-1.031,2.086h2.602v0.445h-3.109v-0.453"/>
</g>
</svg>
